<?xml version="1.0" encoding="utf-8"?>
<svg width="1710" height="400" viewBox="0 0 171 40" fill="none" xmlns="http://www.w3.org/2000/svg">
    <rect width="171" height="40" rx="5" fill="#E5E7EB"/>
    <path d="M16.917 20.073C17.3277 20.1463 17.676 20.3627 17.962 20.722C18.248 21.0813 18.391 21.4883 18.391 21.943C18.391 22.3317 18.2883 22.6837 18.083 22.999C17.885 23.307 17.5953 23.5527 17.214 23.736C16.8327 23.912 16.389 24 15.883 24H12.825V16.355H15.74C16.2607 16.355 16.708 16.443 17.082 16.619C17.456 16.795 17.7383 17.0333 17.929 17.334C18.1197 17.6273 18.215 17.9573 18.215 18.324C18.215 18.764 18.0977 19.1307 17.863 19.424C17.6283 19.7173 17.313 19.9337 16.917 20.073ZM14.079 19.567H15.63C16.0407 19.567 16.3597 19.4753 16.587 19.292C16.8217 19.1013 16.939 18.83 16.939 18.478C16.939 18.1333 16.8217 17.8657 16.587 17.675C16.3597 17.477 16.0407 17.378 15.63 17.378H14.079V19.567ZM15.773 22.977C16.1983 22.977 16.532 22.8743 16.774 22.669C17.016 22.4637 17.137 22.1777 17.137 21.811C17.137 21.437 17.0087 21.14 16.752 20.92C16.4953 20.7 16.1543 20.59 15.729 20.59H14.079V22.977H15.773ZM25.2427 17.939V24H23.9887V23.285C23.7907 23.5343 23.5304 23.7323 23.2077 23.879C22.8924 24.0183 22.555 24.088 22.1957 24.088C21.719 24.088 21.29 23.989 20.9087 23.791C20.5347 23.593 20.2377 23.2997 20.0177 22.911C19.805 22.5223 19.6987 22.053 19.6987 21.503V17.939H20.9417V21.316C20.9417 21.8587 21.0774 22.2767 21.3487 22.57C21.62 22.856 21.9904 22.999 22.4597 22.999C22.929 22.999 23.2994 22.856 23.5707 22.57C23.8494 22.2767 23.9887 21.8587 23.9887 21.316V17.939H25.2427ZM27.5353 17.136C27.3079 17.136 27.1173 17.059 26.9633 16.905C26.8093 16.751 26.7323 16.5603 26.7323 16.333C26.7323 16.1057 26.8093 15.915 26.9633 15.761C27.1173 15.607 27.3079 15.53 27.5353 15.53C27.7553 15.53 27.9423 15.607 28.0963 15.761C28.2503 15.915 28.3273 16.1057 28.3273 16.333C28.3273 16.5603 28.2503 16.751 28.0963 16.905C27.9423 17.059 27.7553 17.136 27.5353 17.136ZM28.1513 17.939V24H26.8973V17.939H28.1513ZM31.0517 15.86V24H29.7977V15.86H31.0517ZM34.161 18.962V22.317C34.161 22.5443 34.2124 22.7093 34.315 22.812C34.425 22.9073 34.6084 22.955 34.865 22.955H35.635V24H34.645C34.0804 24 33.6477 23.868 33.347 23.604C33.0464 23.34 32.896 22.911 32.896 22.317V18.962H32.181V17.939H32.896V16.432H34.161V17.939H35.635V18.962H34.161ZM47.7882 17.939L45.9072 24H44.5872L43.3662 19.523L42.1452 24H40.8252L38.9332 17.939H40.2092L41.4742 22.812L42.7612 17.939H44.0702L45.3022 22.79L46.5562 17.939H47.7882ZM49.3634 17.136C49.1361 17.136 48.9454 17.059 48.7914 16.905C48.6374 16.751 48.5604 16.5603 48.5604 16.333C48.5604 16.1057 48.6374 15.915 48.7914 15.761C48.9454 15.607 49.1361 15.53 49.3634 15.53C49.5834 15.53 49.7704 15.607 49.9244 15.761C50.0784 15.915 50.1554 16.1057 50.1554 16.333C50.1554 16.5603 50.0784 16.751 49.9244 16.905C49.7704 17.059 49.5834 17.136 49.3634 17.136ZM49.9794 17.939V24H48.7254V17.939H49.9794ZM53.0888 18.962V22.317C53.0888 22.5443 53.1401 22.7093 53.2428 22.812C53.3528 22.9073 53.5361 22.955 53.7928 22.955H54.5628V24H53.5728C53.0081 24 52.5754 23.868 52.2748 23.604C51.9741 23.34 51.8238 22.911 51.8238 22.317V18.962H51.1088V17.939H51.8238V16.432H53.0888V17.939H54.5628V18.962H53.0888ZM58.8536 17.84C59.3156 17.84 59.7262 17.939 60.0856 18.137C60.4522 18.335 60.7382 18.6283 60.9436 19.017C61.1562 19.4057 61.2626 19.875 61.2626 20.425V24H60.0196V20.612C60.0196 20.0693 59.8839 19.655 59.6126 19.369C59.3412 19.0757 58.9709 18.929 58.5016 18.929C58.0322 18.929 57.6582 19.0757 57.3796 19.369C57.1082 19.655 56.9726 20.0693 56.9726 20.612V24H55.7186V15.86H56.9726V18.643C57.1852 18.3863 57.4529 18.1883 57.7756 18.049C58.1056 17.9097 58.4649 17.84 58.8536 17.84Z" fill="black"/>
    <path d="M95.9086 15.5255C96.7316 15.5255 97.4331 15.7386 98.0132 16.1649C98.5933 16.5911 98.9921 17.1561 99.2099 17.8598V15.6288H100.237V23.75H99.2099V21.519C98.9921 22.2233 98.5933 22.7886 98.0132 23.2149C97.4331 23.6411 96.7316 23.8543 95.9086 23.8543C95.1748 23.8543 94.5179 23.6857 93.9378 23.3486C93.3578 23.0116 92.9066 22.5281 92.5843 21.8982C92.262 21.2683 92.1008 20.5321 92.1008 19.6894C92.1008 18.8369 92.262 18.0957 92.5843 17.4658C92.9066 16.8366 93.3554 16.3559 93.9305 16.0237C94.5055 15.6915 95.165 15.5255 95.9086 15.5255ZM96.1762 16.4472C95.264 16.4472 94.5327 16.7372 93.9821 17.3173C93.4322 17.8973 93.1573 18.688 93.1573 19.6894C93.1573 20.6908 93.4322 21.4815 93.9821 22.0615C94.5327 22.6416 95.264 22.9316 96.1762 22.9316C96.7513 22.9316 97.2693 22.7978 97.7299 22.5303C98.1913 22.2627 98.5532 21.8835 98.8159 21.3926C99.0786 20.9018 99.2099 20.3341 99.2099 19.6894C99.2099 19.0447 99.0786 18.4773 98.8159 17.9871C98.5532 17.4963 98.1913 17.1168 97.7299 16.8485C97.2693 16.581 96.7513 16.4472 96.1762 16.4472ZM106.84 15.5255C107.584 15.5255 108.241 15.6915 108.811 16.0237C109.381 16.3559 109.827 16.8366 110.15 17.4658C110.472 18.0957 110.633 18.8369 110.633 19.6894C110.633 20.5321 110.472 21.2683 110.15 21.8982C109.827 22.5281 109.378 23.0116 108.803 23.3486C108.228 23.6857 107.574 23.8543 106.84 23.8543C106.007 23.8543 105.303 23.6411 104.728 23.2149C104.153 22.7886 103.756 22.2233 103.539 21.519V27.5873H102.497V15.6288H103.539V17.8598C103.756 17.1561 104.153 16.5911 104.728 16.1649C105.303 15.7386 106.007 15.5255 106.84 15.5255ZM106.558 16.4472C105.983 16.4472 105.464 16.581 105.003 16.8485C104.542 17.1168 104.183 17.4963 103.925 17.9871C103.668 18.4773 103.539 19.0447 103.539 19.6894C103.539 20.3341 103.668 20.9018 103.925 21.3926C104.183 21.8835 104.542 22.2627 105.003 22.5303C105.464 22.7978 105.983 22.9316 106.558 22.9316C107.48 22.9316 108.214 22.6416 108.759 22.0615C109.304 21.4815 109.577 20.6908 109.577 19.6894C109.577 18.688 109.304 17.8973 108.759 17.3173C108.214 16.7372 107.48 16.4472 106.558 16.4472ZM116.85 15.5255C117.593 15.5255 118.25 15.6915 118.82 16.0237C119.391 16.3559 119.837 16.8366 120.159 17.4658C120.481 18.0957 120.643 18.8369 120.643 19.6894C120.643 20.5321 120.481 21.2683 120.159 21.8982C119.837 22.5281 119.388 23.0116 118.813 23.3486C118.238 23.6857 117.583 23.8543 116.85 23.8543C116.017 23.8543 115.313 23.6411 114.738 23.2149C114.163 22.7886 113.766 22.2233 113.548 21.519V27.5873H112.507V15.6288H113.548V17.8598C113.766 17.1561 114.163 16.5911 114.738 16.1649C115.313 15.7386 116.017 15.5255 116.85 15.5255ZM116.567 16.4472C115.992 16.4472 115.474 16.581 115.013 16.8485C114.552 17.1168 114.193 17.4963 113.935 17.9871C113.677 18.4773 113.548 19.0447 113.548 19.6894C113.548 20.3341 113.677 20.9018 113.935 21.3926C114.193 21.8835 114.552 22.2627 115.013 22.5303C115.474 22.7978 115.992 22.9316 116.567 22.9316C117.489 22.9316 118.223 22.6416 118.769 22.0615C119.314 21.4815 119.586 20.6908 119.586 19.6894C119.586 18.688 119.314 17.8973 118.769 17.3173C118.223 16.7372 117.489 16.4472 116.567 16.4472ZM132.169 15.5107H134.132L131.916 23.75H129.596L127.826 17.7564L126.011 23.75H123.692L121.49 15.5107H123.587L124.926 21.8761L126.755 15.5107H128.971L130.815 21.8761L132.169 15.5107ZM137.271 17.0866C137.578 16.5613 137.984 16.1473 138.49 15.8447C138.996 15.5427 139.561 15.3917 140.186 15.3917V17.6374H139.576C138.039 17.6374 137.271 18.3513 137.271 19.7789V23.75H135.174V15.5107H137.271V17.0866ZM141.108 13.145C141.108 12.808 141.227 12.533 141.465 12.3202C141.703 12.1068 142.015 12 142.401 12C142.788 12 143.101 12.1068 143.339 12.3202C143.577 12.533 143.696 12.808 143.696 13.145C143.696 13.4723 143.577 13.7426 143.339 13.956C143.101 14.1694 142.788 14.2762 142.401 14.2762C142.015 14.2762 141.703 14.1694 141.465 13.956C141.227 13.7426 141.108 13.4723 141.108 13.145ZM141.346 15.5107H143.443V23.75H141.346V15.5107ZM148.931 21.9499H149.749V23.75H148.648C147.726 23.75 147.02 23.527 146.529 23.0811C146.038 22.6345 145.792 21.8909 145.792 20.8501V17.2804H144.647V15.5107H145.792V13.4726H147.89V15.5107H149.734V17.2804H147.89V20.8796C147.89 21.2764 147.969 21.5541 148.128 21.7128C148.286 21.8708 148.554 21.9499 148.931 21.9499ZM159 19.3176C159 19.5261 158.975 19.7641 158.926 20.0317H152.887C152.917 20.7655 153.115 21.3059 153.482 21.6528C153.849 21.9997 154.305 22.1732 154.851 22.1732C155.337 22.1732 155.74 22.0542 156.062 21.8161C156.384 21.5787 156.59 21.2567 156.679 20.8501H158.896C158.787 21.4252 158.554 21.9407 158.197 22.3965C157.84 22.8529 157.381 23.21 156.822 23.4677C156.261 23.7254 155.639 23.8543 154.955 23.8543C154.152 23.8543 153.438 23.6833 152.813 23.3413C152.188 22.9992 151.703 22.5109 151.356 21.8761C151.008 21.2413 150.834 20.4928 150.834 19.6304C150.834 18.7674 151.008 18.0164 151.356 17.3772C151.703 16.7376 152.188 16.2491 152.813 15.9121C153.438 15.575 154.152 15.4064 154.955 15.4064C155.767 15.4064 156.479 15.575 157.089 15.9121C157.699 16.2491 158.17 16.7126 158.502 17.3025C158.834 17.8923 159 18.564 159 19.3176ZM156.888 19.11C156.918 18.4352 156.742 17.9244 156.36 17.5774C155.978 17.2305 155.51 17.0571 154.955 17.0571C154.39 17.0571 153.914 17.2305 153.527 17.5774C153.14 17.9244 152.927 18.4352 152.887 19.11H156.888Z" fill="black"/>
    <path d="M89.0077 19.9268C89.0077 23.239 86.3226 25.924 83.0104 25.924C81.4719 25.924 80.0687 25.3447 79.0071 24.3923C80.7078 23.6267 81.8919 21.9171 81.8919 19.931C81.8919 17.9424 80.7049 16.2311 79.0007 15.4669C80.0632 14.5112 81.4688 13.9295 83.0104 13.9295C86.3226 13.9295 89.0077 16.6146 89.0077 19.9268Z" fill="black"/>
    <path d="M80.6131 15.1397C79.9845 14.6646 79.2685 14.3181 78.5059 14.1199C77.7433 13.9217 76.9491 13.8757 76.1688 13.9845C75.3884 14.0934 74.6371 14.3549 73.9579 14.7543C73.2786 15.1536 72.6847 15.6828 72.2101 16.3118C71.7355 16.9407 71.3895 17.657 71.1918 18.4197C70.9941 19.1825 70.9487 19.9767 71.0581 20.757C71.1675 21.5373 71.4296 22.2884 71.8294 22.9673C72.2292 23.6463 72.7588 24.2398 73.3881 24.714C74.6578 25.6721 76.256 26.0866 77.8312 25.8663C79.4065 25.646 80.8297 24.8089 81.7878 23.5393C82.7459 22.2697 83.1604 20.6714 82.9401 19.0962C82.7198 17.5209 81.8828 16.0977 80.6131 15.1396V15.1397ZM79.9462 16.0234C80.9814 16.8046 81.6639 17.9651 81.8435 19.2495C82.0231 20.5339 81.6852 21.8371 80.904 22.8724C80.1227 23.9076 78.9623 24.5901 77.6779 24.7697C76.3934 24.9494 75.0902 24.6114 74.055 23.8302C73.0198 23.049 72.3373 21.8885 72.1576 20.6041C71.978 19.3196 72.316 18.0165 73.0972 16.9812C73.8784 15.946 75.0389 15.2635 76.3233 15.0838C77.6077 14.9042 78.9109 15.2422 79.9462 16.0234Z" fill="black"/>
    <path d="M77.1614 17.8518C77.1542 17.8696 77.0625 18.2297 76.9638 18.6569C76.8613 19.084 76.6989 19.7583 76.6073 20.1573C76.4306 20.888 76.3247 21.3682 76.3247 21.4317C76.3247 21.4493 76.4342 21.4636 76.5682 21.4636H76.8119L76.9212 20.9762C76.9849 20.7115 77.1262 20.1042 77.2391 19.6277C77.3521 19.151 77.4897 18.5721 77.5427 18.339C77.5956 18.1059 77.6486 17.8943 77.6593 17.8696C77.6699 17.8378 77.6097 17.8273 77.4262 17.8273C77.2885 17.8273 77.1683 17.8378 77.1614 17.8518ZM75.2654 19.3805L74.9407 19.7336L75.0361 19.8465C75.0889 19.91 75.2338 20.069 75.3573 20.1996L75.5833 20.4396H76.2258L75.9223 20.1112C75.7562 19.9349 75.6185 19.7653 75.6185 19.7442C75.6185 19.7195 75.7457 19.5607 75.9011 19.3912C76.0563 19.2183 76.1835 19.0698 76.1835 19.0522C76.1835 19.0381 76.0493 19.0275 75.8869 19.0275H75.5939L75.2654 19.3805ZM77.7368 19.0486C77.7368 19.0593 77.7968 19.1263 77.8708 19.2005C78.1464 19.4758 78.3406 19.709 78.33 19.7547C78.3229 19.7795 78.1887 19.9453 78.0264 20.1183L77.7335 20.4396H78.0616L78.39 20.4361L78.69 20.1078C78.856 19.9244 78.9901 19.7617 78.9901 19.7406C78.9901 19.7231 78.8489 19.5571 78.6723 19.3701L78.3548 19.0275H78.0474C77.8744 19.0275 77.7368 19.0381 77.7368 19.0486Z" fill="black"/>
</svg>
